<?xml version="1.0" encoding="UTF-8"?>
<!DOCTYPE svg PUBLIC "-//W3C//DTD SVG 1.1//EN" "http://www.w3.org/Graphics/SVG/1.1/DTD/svg11.dtd">
<svg version="1.1" xmlns="http://www.w3.org/2000/svg" xmlns:xlink="http://www.w3.org/1999/xlink" x="0" y="0" width="959.999" height="959.999" viewBox="0, 0, 959.999, 959.999">
  <g id="Layer_1">
    <g>
      <path d="M323.72,397.51 C375.429,397.51 417.502,355.441 417.502,303.728 C417.502,252.017 375.429,209.96 323.72,209.96 C272.007,209.96 229.938,252.019 229.938,303.728 C229.938,355.451 272.017,397.51 323.72,397.51 z M323.72,231.429 C363.6,231.429 396.053,263.868 396.053,303.748 C396.053,343.633 363.61,376.082 323.72,376.082 C283.823,376.082 251.384,343.643 251.384,303.748 C251.384,263.868 283.835,231.429 323.72,231.429 z" fill="#FFFFFF"/>
      <path d="M302.475,341.819 C304.563,343.91 307.309,344.961 310.056,344.961 C312.799,344.961 315.542,343.91 317.639,341.819 L368.632,290.829 C372.825,286.633 372.825,279.858 368.632,275.662 C364.434,271.469 357.661,271.469 353.467,275.662 L310.056,319.072 L291.352,300.369 C287.159,296.179 280.382,296.179 276.188,300.369 C271.995,304.552 271.995,311.339 276.188,315.533 L302.475,341.819 z" fill="#FFFFFF"/>
      <path d="M439.363,293.971 L637,293.971 C642.939,293.971 647.721,289.163 647.721,283.247 C647.721,277.326 642.939,272.524 637,272.524 L439.363,272.524 C433.446,272.524 428.64,277.326 428.64,283.247 C428.64,289.165 433.446,293.971 439.363,293.971 z" fill="#FFFFFF"/>
      <path d="M439.363,339.709 L637,339.709 C642.939,339.709 647.721,334.903 647.721,328.985 C647.721,323.064 642.939,318.262 637,318.262 L439.363,318.262 C433.446,318.262 428.64,323.064 428.64,328.985 C428.64,334.903 433.446,339.709 439.363,339.709 z" fill="#FFFFFF"/>
      <path d="M323.72,586.74 C375.429,586.74 417.502,544.681 417.502,492.966 C417.502,441.255 375.429,399.186 323.72,399.186 C272.007,399.186 229.938,441.255 229.938,492.966 C229.938,544.681 272.017,586.74 323.72,586.74 z M323.72,420.655 C363.6,420.655 396.053,453.094 396.053,493.002 C396.053,532.88 363.61,565.314 323.72,565.314 C283.823,565.314 251.384,532.88 251.384,493.002 C251.384,453.094 283.835,420.655 323.72,420.655 z" fill="#FFFFFF"/>
      <path d="M302.475,531.045 C304.563,533.118 307.309,534.189 310.056,534.189 C312.799,534.189 315.542,533.118 317.639,531.045 L368.632,480.064 C372.825,475.855 372.825,469.094 368.632,464.88 C364.434,460.665 357.661,460.685 353.467,464.88 L310.056,508.27 L291.352,489.577 C287.159,485.377 280.382,485.377 276.188,489.577 C271.995,493.764 271.995,500.529 276.188,504.731 L302.475,531.045 z" fill="#FFFFFF"/>
      <path d="M439.363,483.204 L637,483.204 C642.939,483.204 647.721,478.412 647.721,472.481 C647.721,466.548 642.939,461.758 637,461.758 L439.363,461.758 C433.446,461.758 428.64,466.56 428.64,472.481 C428.64,478.4 433.446,483.204 439.363,483.204 z" fill="#FFFFFF"/>
      <path d="M439.363,528.93 L637,528.93 C642.939,528.93 647.721,524.134 647.721,518.205 C647.721,512.278 642.939,507.482 637,507.482 L439.363,507.482 C433.446,507.482 428.64,512.278 428.64,518.205 C428.64,524.134 433.446,528.93 439.363,528.93 z" fill="#FFFFFF"/>
      <path d="M323.72,775.992 C375.429,775.992 417.502,733.923 417.502,682.208 C417.502,630.495 375.429,588.438 323.72,588.438 C272.007,588.438 229.938,630.495 229.938,682.208 C229.938,733.923 272.017,775.992 323.72,775.992 z M323.72,609.882 C363.6,609.882 396.053,642.329 396.053,682.208 C396.053,722.088 363.61,754.543 323.72,754.543 C283.823,754.543 251.384,722.11 251.384,682.208 C251.384,642.329 283.835,609.882 323.72,609.882 z" fill="#FFFFFF"/>
      <path d="M302.475,720.287 C304.563,722.372 307.309,723.427 310.056,723.427 C312.799,723.427 315.542,722.372 317.639,720.287 L368.632,669.286 C372.825,665.097 372.825,658.319 368.632,654.122 C364.434,649.93 357.661,649.93 353.467,654.122 L310.056,697.54 L291.352,678.836 C287.159,674.649 280.382,674.649 276.188,678.836 C271.995,683.036 271.995,689.803 276.188,694.002 L302.475,720.287 z" fill="#FFFFFF"/>
      <path d="M439.363,672.448 L637,672.448 C642.939,672.448 647.721,667.63 647.721,661.723 C647.721,655.796 642.939,651 637,651 L439.363,651 C433.446,651 428.64,655.796 428.64,661.723 C428.64,667.63 433.446,672.448 439.363,672.448 z" fill="#FFFFFF"/>
      <path d="M439.363,718.174 L637,718.174 C642.939,718.174 647.721,713.356 647.721,707.449 C647.721,701.522 642.939,696.726 637,696.726 L439.363,696.726 C433.446,696.726 428.64,701.522 428.64,707.449 C428.64,713.356 433.446,718.174 439.363,718.174 z" fill="#FFFFFF"/>
      <path d="M151.358,876.709 C151.358,882.626 156.166,887.43 162.083,887.43 L284.619,887.43 C341.156,913.561 401.51,926.861 464.073,926.861 C526.637,926.861 586.981,913.561 643.544,887.43 L766.062,887.43 C771.969,887.43 776.787,882.626 776.787,876.709 L776.787,791.072 C851.521,711.323 892.71,607.528 892.71,498.245 C892.71,388.942 851.521,285.163 776.787,205.408 L776.787,119.779 C776.787,113.86 771.969,109.056 766.062,109.056 L643.544,109.056 C601.507,89.647 556.726,77.355 510.27,72.37 C506.312,38.907 477.803,12.858 443.291,12.858 C406.495,12.858 376.542,42.458 375.858,79.091 C344.199,85.732 313.549,95.711 284.629,109.064 L162.083,109.064 C156.166,109.064 151.358,113.872 151.358,119.789 L151.358,205.42 C76.626,285.165 35.459,388.942 35.459,498.245 C35.459,607.514 76.626,711.325 151.358,791.072 L151.358,876.709 z M443.303,34.295 C468.688,34.295 489.346,54.953 489.324,80.228 C489.305,80.453 489.243,81.453 489.243,81.674 C489.115,85.407 488.59,88.99 487.712,92.306 C486.372,97.228 488.74,102.417 493.305,104.683 C493.305,104.683 494.226,105.144 495.89,105.966 C497.011,106.516 498.426,107.235 500.133,108.083 C501.829,108.926 503.818,109.904 506.019,110.999 C515.904,115.879 530.125,122.892 543.533,129.411 C581.381,147.839 582.219,147.839 585.359,147.839 C606.809,147.839 625.201,162.525 630.123,183.163 L256.479,183.163 C261.381,162.525 279.749,147.839 301.208,147.839 C301.607,147.839 302.036,147.839 302.539,147.801 C303.041,147.77 303.644,147.698 304.382,147.544 C304.747,147.472 305.156,147.388 305.607,147.267 C306.191,147.121 306.904,146.912 307.664,146.68 C313.242,144.931 323.782,140.532 346.068,129.357 L346.078,129.347 C348.61,128.081 351.153,126.79 353.671,125.509 C353.854,125.409 354.034,125.326 354.206,125.232 C356.556,124.027 358.872,122.85 361.144,121.673 C361.35,121.561 361.531,121.467 361.735,121.357 C366.431,118.933 370.894,116.599 374.988,114.441 C375.323,114.267 375.61,114.111 375.931,113.938 C377.607,113.058 379.225,112.198 380.739,111.398 C381.426,111.031 382.036,110.708 382.693,110.355 C383.718,109.806 384.719,109.272 385.641,108.791 C389.148,106.925 391.935,105.423 393.591,104.531 C393.623,104.511 393.643,104.48 393.685,104.454 C397.085,102.654 399.467,99.193 399.467,95.071 C399.467,94.197 399.11,93.431 398.916,92.611 C398.896,92.499 398.916,92.392 398.884,92.286 C398.349,90.291 397.94,88.244 397.665,86.155 C397.408,84.242 397.246,82.301 397.246,80.326 C397.264,54.953 417.917,34.295 443.303,34.295 z M234.183,196.187 C235.266,200.959 239.34,204.598 244.436,204.598 L641.301,204.598 C641.594,204.598 641.87,204.598 642.181,204.598 C642.937,204.598 643.667,204.414 644.423,204.251 C644.685,204.199 644.948,204.209 645.217,204.137 C646.309,203.81 647.344,203.341 648.32,202.665 C650.538,201.11 652.044,198.786 652.601,196.187 L668.029,196.187 L668.029,798.163 L217.493,798.163 L217.493,196.187 L234.183,196.187 z M172.808,130.481 L277.96,130.481 C274.979,131.576 272.126,132.929 269.345,134.405 C268.597,134.812 267.891,135.273 267.163,135.702 C264.952,136.99 262.838,138.393 260.801,139.927 C260.031,140.508 259.265,141.064 258.526,141.675 C256.192,143.586 253.972,145.633 251.897,147.845 C251.693,148.059 251.458,148.246 251.264,148.468 C249.04,150.92 247.031,153.579 245.186,156.358 C244.683,157.106 244.242,157.904 243.771,158.674 C242.443,160.853 241.242,163.093 240.158,165.429 C239.751,166.309 239.33,167.177 238.953,168.079 C238.065,170.237 237.327,172.456 236.661,174.718 L206.774,174.718 C200.856,174.718 196.05,179.52 196.05,185.441 L196.05,808.864 C196.05,814.793 200.858,819.589 206.774,819.589 L678.818,819.589 C684.725,819.589 689.543,814.793 689.543,808.864 L689.543,185.463 C689.543,179.546 684.725,174.74 678.818,174.74 L650.027,174.74 C649.746,173.767 649.391,172.795 649.066,171.831 C648.743,170.806 648.324,169.838 647.925,168.833 C646.981,166.471 645.904,164.189 644.761,161.978 C644.226,161.004 643.703,160.035 643.149,159.083 C641.682,156.615 640.048,154.271 638.269,152.023 C637.91,151.564 637.598,151.049 637.221,150.6 C635.045,147.973 632.625,145.547 630.079,143.285 C629.389,142.678 628.657,142.148 627.923,141.573 C625.956,139.959 623.901,138.463 621.742,137.074 C620.798,136.478 619.881,135.907 618.917,135.362 C616.653,134.064 614.297,132.919 611.879,131.885 C611.085,131.546 610.328,131.147 609.509,130.838 C609.217,130.728 608.956,130.566 608.675,130.471 L641.301,130.471 L755.329,130.471 L755.329,209.531 L755.329,786.895 L755.329,865.965 L641.281,865.965 L286.85,865.965 L172.808,865.965 L172.808,786.895 L172.808,209.551 L172.808,130.481 z" fill="#FFFFFF"/>
      <path d="M443.303,103.263 C455.01,103.263 464.534,93.726 464.534,82.03 C464.534,70.331 455,60.795 443.303,60.795 C431.604,60.795 422.068,70.319 422.068,82.03 C422.068,93.752 431.604,103.263 443.303,103.263 z M443.303,81.816 L443.303,92.539 L443.088,82.03 C443.088,81.926 443.198,81.816 443.303,81.816 z" fill="#FFFFFF"/>
    </g>
  </g>
</svg>
