<?xml version="1.0" encoding="UTF-8"?>
<!DOCTYPE svg PUBLIC "-//W3C//DTD SVG 1.1//EN" "http://www.w3.org/Graphics/SVG/1.1/DTD/svg11.dtd">
<svg version="1.1" xmlns="http://www.w3.org/2000/svg" xmlns:xlink="http://www.w3.org/1999/xlink" x="0" y="0" width="959.999" height="959.999" viewBox="0, 0, 959.999, 959.999">
  <g id="Layer_1">
    <g>
      <path d="M817.307,32.954 C868.908,32.954 910.738,69.154 910.738,113.81 L910.738,357.696 C910.738,402.352 868.908,438.552 817.307,438.552 L789.559,438.552 L816.523,561.907 L734.706,438.552 L445.784,438.552 C394.184,438.552 352.354,402.352 352.354,357.696 L352.354,113.81 C352.354,69.154 394.184,32.954 445.784,32.954 L817.307,32.954 z" fill="#FFFFFF" fill-opacity="0.692"/>
      <path d="M817.307,32.954 C868.908,32.954 910.738,69.154 910.738,113.81 L910.738,357.696 C910.738,402.352 868.908,438.552 817.307,438.552 L789.559,438.552 L816.523,561.907 L734.706,438.552 L445.784,438.552 C394.184,438.552 352.354,402.352 352.354,357.696 L352.354,113.81 C352.354,69.154 394.184,32.954 445.784,32.954 L817.307,32.954 z" fill-opacity="0" stroke="#525252" stroke-width="15"/>
    </g>
    <g>
      <path d="M523.268,194.061 C591.195,194.061 646.261,238.833 646.261,294.061 L646.261,595.692 C646.261,650.92 591.195,695.692 523.268,695.692 L282.72,695.692 L175.754,825.676 L222.49,695.692 L152.285,695.692 C84.358,695.692 29.292,650.92 29.292,595.692 L29.292,294.061 C29.292,238.833 84.358,194.061 152.285,194.061 L523.268,194.061 z" fill="#FFFFFF"/>
      <path d="M523.268,194.061 C591.195,194.061 646.261,238.833 646.261,294.061 L646.261,595.692 C646.261,650.92 591.195,695.692 523.268,695.692 L282.72,695.692 L175.754,825.676 L222.49,695.692 L152.285,695.692 C84.358,695.692 29.292,650.92 29.292,595.692 L29.292,294.061 C29.292,238.833 84.358,194.061 152.285,194.061 L523.268,194.061 z" fill-opacity="0" stroke="#525252" stroke-width="15"/>
    </g>
    <g>
      <path d="M117.169,307.569 L366.154,307.569" fill-opacity="0" stroke="#525252" stroke-width="15"/>
      <path d="M117.169,388.123 L569.369,388.123" fill-opacity="0" stroke="#525252" stroke-width="15"/>
      <path d="M117.169,498.153 L569.369,498.153" fill-opacity="0" stroke="#525252" stroke-width="15"/>
      <path d="M117.169,561.907 L569.369,561.907" fill-opacity="0" stroke="#525252" stroke-width="15"/>
      <path d="M117.169,440.23 L569.369,440.23" fill-opacity="0" stroke="#525252" stroke-width="15"/>
    </g>
  </g>
</svg>
