<?xml version="1.0" encoding="UTF-8"?>
<!DOCTYPE svg PUBLIC "-//W3C//DTD SVG 1.1//EN" "http://www.w3.org/Graphics/SVG/1.1/DTD/svg11.dtd">
<svg version="1.1" xmlns="http://www.w3.org/2000/svg" xmlns:xlink="http://www.w3.org/1999/xlink" x="0" y="0" width="211.014" height="211.015" viewBox="0, 0, 211.014, 211.015">
  <g id="Layer_1">
    <path d="M99.024,149.456 L105.442,137.492 L98.349,133.689 C99.136,130.704 99.451,127.58 99.254,124.427 L106.972,122.093 L103.032,109.093 L95.316,111.426 C93.749,108.725 91.771,106.306 89.428,104.24 L93.243,97.126 L81.276,90.716 L77.463,97.826 C74.451,97.029 71.336,96.713 68.22,96.914 L65.887,89.193 L52.886,93.122 L55.215,100.819 C52.447,102.425 50.034,104.429 48.006,106.709 L40.917,102.913 L34.505,114.88 L41.589,118.675 C40.804,121.662 40.486,124.785 40.683,127.937 L32.971,130.265 L36.899,143.272 L44.622,140.941 C46.187,143.645 48.167,146.062 50.508,148.124 L46.692,155.238 L58.658,161.658 L62.477,154.541 C65.485,155.338 68.598,155.656 71.714,155.46 L74.048,163.183 L87.049,159.253 L84.721,151.546 C87.487,149.941 89.901,147.935 91.928,145.654 L99.024,149.456 z M54.881,130.745 C52.753,123.697 55.706,116.209 62.066,112.537 C63.113,111.932 64.237,111.443 65.409,111.089 C69.44,109.868 73.704,110.299 77.412,112.283 C81.123,114.268 83.839,117.585 85.057,121.618 C87.184,128.666 84.229,136.156 77.868,139.828 C76.822,140.432 75.698,140.917 74.524,141.273 C70.498,142.497 66.234,142.064 62.521,140.08 C58.81,138.093 56.097,134.775 54.881,130.745 z M143.159,134.098 L144.822,130.998 L135.849,126.178 L134.178,129.287 C133.069,129.062 131.941,128.947 130.792,128.945 L129.776,125.573 L120.023,128.516 L121.033,131.857 C120.063,132.498 119.179,133.222 118.372,134.026 L115.302,132.383 L110.494,141.362 L113.517,142.978 C113.296,144.1 113.214,145.25 113.212,146.415 L109.891,147.426 L112.833,157.175 L116.196,156.156 C116.829,157.108 117.541,157.984 118.351,158.794 L116.695,161.887 L125.674,166.696 L127.327,163.605 C128.454,163.832 129.581,163.942 130.722,163.942 L131.738,167.307 L141.488,164.359 L140.476,161.022 C141.445,160.378 142.332,159.66 143.139,158.856 L146.21,160.502 L151.021,151.526 L147.994,149.904 C148.221,148.778 148.303,147.628 148.298,146.467 L151.622,145.459 L148.679,135.707 L145.313,136.727 C144.672,135.771 143.96,134.895 143.159,134.098 z M137.843,144.3 C139.004,148.148 136.816,152.329 132.897,153.519 C131.009,154.084 129.006,153.889 127.268,152.955 C125.528,152.03 124.26,150.472 123.68,148.579 C122.681,145.27 124.067,141.747 127.044,140.029 C127.538,139.743 128.063,139.525 128.608,139.355 C132.529,138.187 136.661,140.396 137.843,144.3 z M140.061,97.61 L144.629,96.226 L142.668,89.726 L138.112,91.104 C137.2,89.459 136.002,88 134.57,86.787 L136.822,82.582 L130.833,79.379 L128.583,83.579 C126.779,83.068 124.9,82.878 123.026,83.027 L121.651,78.47 L115.15,80.432 L116.525,84.977 C116.456,85.017 116.375,85.049 116.304,85.09 C114.704,86.014 113.32,87.177 112.174,88.514 L108.014,86.277 L104.802,92.258 L109.009,94.52 C108.507,96.302 108.306,98.17 108.464,100.068 L103.892,101.452 L105.859,107.95 L110.409,106.574 C111.321,108.22 112.518,109.677 113.951,110.892 L111.705,115.091 L117.691,118.291 L119.937,114.098 C121.744,114.607 123.621,114.801 125.494,114.651 L126.876,119.207 L133.372,117.248 L131.999,112.696 C132.071,112.654 132.149,112.624 132.218,112.584 C133.815,111.663 135.197,110.501 136.346,109.163 L140.514,111.401 L143.713,105.411 L139.51,103.157 C140.016,101.379 140.212,99.509 140.061,97.61 z M115.558,101.472 C114.334,97.401 116.032,93.088 119.702,90.969 C120.308,90.619 120.958,90.338 121.632,90.133 C123.961,89.431 126.414,89.676 128.554,90.822 C130.693,91.967 132.263,93.878 132.964,96.207 C134.393,100.937 131.696,106.093 126.885,107.533 C124.563,108.234 122.102,107.989 119.963,106.845 C117.824,105.7 116.262,103.79 115.558,101.472 z" fill="#FFFFFF"/>
    <g>
      <path d="M21.728,72.184 L37.728,64.184 L37.728,66.733 L26.796,72.169 L37.728,77.664 L37.728,80.183 z" fill="#FFFFFF" fill-opacity="0.181"/>
      <path d="M41.971,80.876 L39.275,80.876 L53.816,56.641 L56.423,56.641 z" fill="#FFFFFF" fill-opacity="0.181"/>
      <path d="M73.94,72.184 L57.941,80.183 L57.941,77.635 L68.887,72.198 L57.941,66.703 L57.941,64.184 z" fill="#FFFFFF" fill-opacity="0.181"/>
    </g>
    <g>
      <path d="M104.775,53.872 L130.166,41.177 L130.166,45.221 L112.818,53.849 L130.166,62.569 L130.166,66.567 z" fill="#FFFFFF" fill-opacity="0.292"/>
      <path d="M136.9,67.666 L132.621,67.666 L155.697,29.206 L159.836,29.206 z" fill="#FFFFFF" fill-opacity="0.292"/>
      <path d="M187.635,53.872 L162.244,66.567 L162.244,62.523 L179.615,53.895 L162.244,45.175 L162.244,41.177 z" fill="#FFFFFF" fill-opacity="0.292"/>
    </g>
    <g>
      <path d="M151.622,171.31 L158.724,167.758 L158.724,168.89 L153.871,171.303 L158.724,173.742 L158.724,174.861 z" fill="#FFFFFF"/>
      <path d="M160.608,175.168 L159.411,175.168 L165.866,164.41 L167.024,164.41 z" fill="#FFFFFF"/>
      <path d="M174.8,171.31 L167.697,174.861 L167.697,173.729 L172.557,171.316 L167.697,168.877 L167.697,167.758 z" fill="#FFFFFF"/>
    </g>
    <g>
      <path d="M82.672,176.608 L92.246,171.821 L92.246,173.346 L85.705,176.599 L92.246,179.887 L92.246,181.395 z" fill="#FFFFFF" fill-opacity="0.485"/>
      <path d="M94.785,181.809 L93.172,181.809 L101.873,167.307 L103.434,167.307 z" fill="#FFFFFF" fill-opacity="0.485"/>
      <path d="M113.916,176.608 L104.342,181.395 L104.342,179.87 L110.892,176.617 L104.342,173.328 L104.342,171.821 z" fill="#FFFFFF" fill-opacity="0.485"/>
    </g>
    <g>
      <path d="M144.332,119.189 L158.107,112.301 L158.107,114.496 L148.695,119.176 L158.107,123.907 L158.107,126.076 z" fill="#FFFFFF" fill-opacity="0.702"/>
      <path d="M161.761,126.673 L159.439,126.673 L171.959,105.807 L174.204,105.807 z" fill="#FFFFFF" fill-opacity="0.702"/>
      <path d="M189.286,119.189 L175.511,126.076 L175.511,123.882 L184.935,119.201 L175.511,114.47 L175.511,112.301 z" fill="#FFFFFF" fill-opacity="0.702"/>
    </g>
  </g>
</svg>
