<?xml version="1.0" encoding="UTF-8"?>
<!DOCTYPE svg PUBLIC "-//W3C//DTD SVG 1.1//EN" "http://www.w3.org/Graphics/SVG/1.1/DTD/svg11.dtd">
<svg version="1.1" xmlns="http://www.w3.org/2000/svg" xmlns:xlink="http://www.w3.org/1999/xlink" x="0" y="0" width="1000" height="1000" viewBox="0, 0, 1000, 1000">
  <g id="Layer_1">
    <g>
      <g>
        <path d="M366.379,621.972 Q366.379,691.88 335.144,743.443 Q298.455,803.931 233.505,803.931 Q217.143,803.931 195.328,796.494 Q112.529,770.217 112.529,647.754 Q112.529,576.359 144.261,519.342 Q181.941,450.921 247.883,450.921 Q305.396,450.921 338.614,509.921 Q366.379,559.006 366.379,621.972 z M338.614,617.51 Q338.614,507.442 265.236,482.652 Q257.303,479.677 251.353,479.677 Q219.622,479.677 188.883,508.93 Q136.824,558.51 136.824,662.132 Q136.824,671.552 140.79,691.88 Q149.219,734.519 168.555,755.343 Q191.362,779.141 232.513,779.141 Q289.034,779.141 316.799,723.116 Q338.614,679.981 338.614,617.51 z" fill="#FFFFFF"/>
        <path d="M658.901,768.729 Q658.901,775.175 652.456,779.141 Q646.011,783.107 639.565,783.107 Q607.834,783.107 517.598,639.821 Q515.119,639.325 513.384,641.308 Q511.649,643.292 495.287,672.544 Q476.943,703.779 458.598,735.511 Q438.766,771.704 430.337,801.948 Q421.909,808.393 414.472,808.393 Q404.06,808.393 386.707,788.561 Q394.144,781.62 408.522,767.242 Q415.959,759.309 458.598,688.905 Q501.237,618.502 501.237,615.031 Q501.237,607.594 457.606,544.875 Q413.976,482.156 413.976,470.257 Q413.976,453.896 431.329,453.896 Q439.262,453.896 457.606,462.324 L459.094,465.299 Q458.598,490.585 480.413,529.753 Q499.254,559.501 518.094,588.753 Q538.422,558.014 576.103,494.056 Q581.061,481.661 593.952,458.854 Q602.38,447.45 611.8,447.45 Q617.254,447.45 620.973,452.408 Q624.691,457.366 625.187,462.82 L531.481,613.544 Q546.851,643.787 584.036,697.83 Q629.153,763.771 642.54,763.771 Q647.002,763.771 649.481,759.309 L654.935,759.309 Q658.901,764.267 658.901,768.729 z" fill="#FFFFFF"/>
        <path d="M886.97,769.225 Q884.491,774.679 881.02,774.679 Q879.037,774.679 875.319,773.935 Q871.6,773.191 869.617,773.191 Q848.297,773.191 807.89,786.826 Q767.482,800.46 746.162,800.46 Q676.255,800.46 676.255,682.955 Q676.255,589.745 681.213,523.803 Q682.204,507.938 682.204,507.938 Q682.204,503.971 680.965,497.774 Q679.725,491.576 679.725,489.097 Q679.725,477.198 696.087,475.711 Q714.431,473.728 768.474,460.341 Q817.558,448.442 838.877,448.442 Q841.356,448.442 845.818,449.433 Q853.751,448.938 861.188,453.896 Q868.625,458.854 868.625,464.307 Q868.625,474.223 843.339,474.223 Q820.533,474.223 776.406,482.156 Q726.826,491.576 714.927,501.492 Q710.961,539.173 705.507,619.493 Q707.49,621.972 710.961,621.972 Q725.835,621.972 755.087,612.552 Q784.339,603.132 799.709,603.132 Q812.104,603.132 824.499,609.577 L828.465,624.451 Q829.457,626.434 815.575,631.392 Q808.633,626.93 797.726,626.93 Q785.331,626.93 750.873,635.854 Q716.414,644.779 704.019,650.728 Q702.036,661.636 702.036,701.3 Q702.036,776.166 740.213,776.166 Q758.557,776.166 793.016,763.771 Q827.474,751.376 845.818,751.376 Q877.55,751.376 886.97,769.225 z" fill="#FFFFFF"/>
      </g>
      <g>
        <path d="M365.396,915.37 Q365.396,920.131 358.185,923.397 Q352.199,925.982 346.621,925.982 Q342.947,925.982 338.186,924.213 Q335.6,923.125 329.886,918.499 Q323.628,913.465 323.628,911.56 Q323.628,907.342 328.662,907.751 L329.478,907.751 Q329.75,911.832 338.186,916.594 Q345.805,920.948 350.43,920.948 Q356.417,920.948 356.417,916.866 Q356.417,914.417 349.07,910.063 Q339.002,904.213 335.328,900.676 Q327.845,893.465 327.845,884.077 Q327.845,877.002 331.519,870.608 Q335.737,862.989 342.131,862.989 Q346.757,862.989 353.288,867.274 Q359.818,871.56 360.907,875.914 Q361.995,879.587 361.995,884.485 Q361.995,889.791 360.09,896.05 Q358.866,897.002 357.233,897.002 Q356.281,897.002 354.24,896.254 Q352.199,895.506 352.199,894.689 Q352.199,895.234 353.696,891.696 Q354.784,889.383 354.784,883.261 Q354.784,868.703 345.668,868.703 Q340.907,868.703 338.049,875.098 Q335.6,880.268 335.6,885.574 Q335.6,892.24 343.356,898.499 Q345.941,900.676 357.641,907.887 Q365.396,912.648 365.396,915.37 z" fill="#FFFFFF"/>
        <path d="M414.24,896.594 Q414.24,908.295 409.07,917.002 Q402.947,927.478 392.063,927.478 Q381.043,927.478 375.6,918.907 Q371.111,911.832 371.111,900.132 Q371.111,888.567 376.281,877.411 Q382.811,863.669 392.879,863.669 Q395.464,863.669 400.226,866.662 Q414.24,875.37 414.24,896.594 z M407.709,896.458 Q407.709,887.751 405.396,880.812 Q401.995,871.152 394.92,871.152 Q386.757,871.152 382.131,881.9 Q378.594,890.2 378.594,899.723 Q378.594,908.295 381.043,914.145 Q384.58,922.172 392.063,922.172 Q400.226,922.172 404.444,912.921 Q407.709,905.71 407.709,896.458 z" fill="#FFFFFF"/>
        <path d="M461.723,839.451 Q461.723,842.173 457.641,842.173 Q456.825,842.173 456.416,841.9 Q455.872,836.186 448.797,836.186 Q442.131,836.186 438.457,851.424 Q436.008,862.172 436.008,871.968 Q436.961,871.832 438.457,871.968 Q441.723,871.968 442.131,871.968 Q447.165,871.968 447.165,874.962 Q447.165,875.914 446.893,877.683 Q444.716,878.907 440.09,878.907 Q436.553,878.907 435.736,879.451 Q435.328,884.757 435.328,898.635 L435.328,908.431 Q435.328,914.961 436.825,921.628 Q437.097,922.308 437.097,922.853 Q437.097,926.118 432.471,926.118 Q428.389,926.118 428.389,915.097 Q428.389,885.166 428.934,879.723 Q429.206,879.723 421.995,879.723 Q418.866,879.723 418.866,876.73 Q418.866,872.785 424.308,872.785 L429.206,872.785 Q429.478,870.064 429.75,865.846 Q431.791,829.656 450.022,829.656 Q461.723,829.656 461.723,839.451 z" fill="#FFFFFF"/>
        <path d="M476.824,880.54 Q475.736,881.356 471.654,881.9 Q467.165,882.444 466.484,882.853 Q466.348,884.349 466.348,897.955 Q466.348,908.567 466.62,912.24 Q466.62,913.737 467.301,917.002 Q467.981,920.267 467.981,922.036 Q467.981,923.125 466.62,924.213 Q465.26,925.301 464.171,925.301 Q461.45,925.301 459.818,919.723 Q458.729,915.642 458.729,911.968 Q458.729,892.785 459.001,883.669 Q458.185,882.989 452.743,883.669 Q448.389,884.213 448.389,880.54 Q448.389,875.37 459.41,875.778 L461.178,851.152 Q461.178,850.744 460.838,849.86 Q460.498,848.975 460.498,848.567 Q460.498,847.751 461.586,847.002 Q462.675,846.254 464.171,846.39 Q468.933,846.798 468.933,851.152 Q468.933,854.553 467.981,861.356 Q467.029,868.159 467.029,871.424 Q467.029,873.057 467.301,874.553 L474.784,874.145 Q478.593,874.145 478.593,877.138 Q478.593,879.315 476.824,880.54 z" fill="#FFFFFF"/>
        <path d="M546.892,879.995 Q546.892,892.921 543.491,905.574 Q538.729,923.533 529.613,923.533 Q522.947,923.533 518.185,915.233 Q516.416,911.152 514.648,906.934 L514.103,907.206 Q512.199,912.648 510.158,918.091 Q507.301,924.349 501.586,924.349 Q484.307,924.349 484.307,882.853 Q484.307,873.329 484.852,867.887 Q485.804,866.526 487.301,866.526 Q488.797,866.526 490.838,867.683 Q492.879,868.839 492.879,870.336 Q492.879,872.104 491.995,875.846 Q491.11,879.587 491.11,881.764 Q491.11,917.138 500.226,917.138 Q506.076,917.138 509.614,903.805 Q512.471,893.601 512.335,885.438 L512.335,872.376 Q512.335,869.519 515.6,869.519 Q519.545,869.519 519.545,874.962 Q519.545,875.642 519.341,877.002 Q519.137,878.363 519.137,879.043 L519.137,895.778 Q519.137,901.628 521.178,908.295 Q523.763,917.138 528.117,917.138 Q533.967,917.138 537.913,902.308 Q540.906,890.88 540.906,882.308 Q540.906,873.737 539.818,871.832 Q539.818,871.696 538.865,870.608 Q537.913,869.519 537.913,869.111 Q537.913,867.615 539.205,866.254 Q540.498,864.894 541.994,864.894 Q546.892,864.894 546.892,879.995 z" fill="#FFFFFF"/>
        <path d="M593.695,927.342 Q593.695,929.247 590.702,929.247 Q587.436,929.247 586.756,926.526 Q586.62,926.118 586.62,921.22 Q586.62,919.859 586.212,919.043 Q578.593,924.621 569.749,924.621 Q563.627,924.621 557.913,921.22 Q551.382,917.41 551.382,911.696 Q551.382,906.118 559.137,900.812 Q566.212,895.914 572.198,895.914 L585.668,895.914 Q586.484,895.097 586.484,893.057 Q586.484,883.941 584.987,879.315 Q582.538,871.56 575.328,871.56 Q570.157,871.56 565.804,878.091 Q561.858,884.077 561.858,889.519 Q561.858,889.791 561.858,890.336 Q561.858,890.88 561.858,891.016 Q561.858,892.104 560.77,892.104 Q559.409,892.104 557.777,890.472 Q556.144,888.839 556.144,887.615 Q556.144,883.805 558.457,878.023 Q560.77,872.24 563.491,869.247 Q566.892,865.574 571.926,865.574 Q579.681,865.574 586.212,870.472 Q593.151,875.778 593.287,883.261 z M586.484,905.71 Q586.484,900.268 578.049,900.268 Q571.382,900.268 566.348,902.58 Q559.953,905.574 559.953,911.56 Q559.953,915.233 563.355,917.274 Q566.212,919.043 570.157,919.043 Q576.008,919.043 581.246,915.233 Q586.484,911.424 586.484,905.71 z" fill="#FFFFFF"/>
        <path d="M633.559,874.962 Q633.559,875.506 633.423,877.274 Q631.654,879.995 630.021,879.995 Q628.933,879.995 628.116,878.635 Q627.708,870.064 621.042,870.064 Q616.688,870.064 612.47,886.118 Q610.838,891.968 610.838,901.764 Q610.838,914.281 611.518,917.138 Q611.654,917.546 612.198,918.839 Q612.742,920.131 612.742,920.812 Q612.742,923.805 608.661,923.805 Q604.035,923.805 604.035,919.043 Q604.035,918.363 604.375,917.07 Q604.715,915.778 604.715,915.097 Q604.715,907.614 604.035,892.649 Q603.355,877.683 603.355,870.2 Q603.355,867.479 604.307,866.866 Q605.259,866.254 607.98,866.254 Q611.382,866.254 611.926,868.703 Q612.062,871.424 612.198,874.009 Q615.736,868.567 616.28,867.887 Q619.273,864.485 622.538,864.485 Q624.987,864.485 627.436,865.982 Q628.797,866.798 631.178,870.2 Q633.559,873.601 633.559,874.962 z" fill="#FFFFFF"/>
        <path d="M675.871,909.927 Q675.871,915.914 667.844,920.676 Q660.633,925.029 654.239,925.029 Q636.008,925.029 636.008,901.9 Q636.008,891.696 639.681,879.996 Q644.579,864.757 652.198,864.757 Q658.729,864.757 666.484,871.356 Q674.239,877.955 674.239,884.485 Q674.239,892.921 667.436,899.179 Q660.633,905.438 652.062,905.438 Q651.246,905.438 648.593,904.077 Q645.94,902.717 644.987,902.717 Q643.219,902.717 643.219,903.805 Q643.219,919.451 653.559,919.451 Q658.865,919.451 663.354,915.914 Q666.076,913.873 669.341,909.519 Q671.926,906.118 672.742,906.118 Q675.871,906.118 675.871,909.927 z M666.484,884.893 Q666.484,880.132 663.763,875.982 Q661.042,871.832 656.552,871.832 Q651.11,871.832 647.708,878.635 Q644.851,884.349 644.851,890.472 Q644.851,894.417 647.368,897.07 Q649.885,899.723 653.831,899.723 Q659.409,899.723 663.082,894.961 Q666.484,890.608 666.484,884.893 z" fill="#FFFFFF"/>
      </g>
      <path d="M499.743,70.753 C730.985,70.907 946.919,243.005 974.537,476.658 C829.737,399.446 662.207,373.621 499.743,372.606 C337.75,374.55 169.159,398.294 24.962,476.651 C52.977,236.786 266.023,76.137 499.743,70.753 L499.743,70.753 z M772.536,219.459 L748.586,267.988 L695.031,275.77 L733.784,313.544 L724.636,366.882 L772.536,341.699 L820.437,366.882 L811.289,313.544 L850.041,275.77 L796.487,267.988 L772.536,219.459 z M215.927,219.459 L191.977,267.988 L138.422,275.77 L177.175,313.544 L168.027,366.882 L215.927,341.699 L263.828,366.882 L254.68,313.544 L293.432,275.77 L239.877,267.988 L215.927,219.459 z M499.75,107.943 L475.799,156.472 L422.245,164.254 L460.997,202.028 L451.849,255.366 L499.75,230.183 L547.65,255.366 L538.502,202.028 L577.254,164.254 L523.7,156.472 L499.75,107.943 z" fill="#FFFFFF"/>
      <path d="M73.215,733.448 C25.676,720.422 23.322,577.807 67.958,414.91" fill-opacity="0" stroke="#FFFFFF" stroke-width="5"/>
      <path d="M63.215,709.31 C15.676,696.284 13.322,553.67 57.957,390.772" fill-opacity="0" stroke="#FFFFFF" stroke-width="5"/>
      <path d="M945.405,659.88 C990.33,639.598 970.408,498.362 900.907,344.422" fill-opacity="0" stroke="#FFFFFF" stroke-width="5"/>
      <path d="M951.518,634.478 C996.443,614.195 976.521,472.96 907.02,319.019" fill-opacity="0" stroke="#FFFFFF" stroke-width="5"/>
    </g>
  </g>
</svg>
